<svg width="525" height="78" viewBox="0 0 525 78" fill="none" xmlns="http://www.w3.org/2000/svg">
<g clip-path="url(#clip0)">
<rect width="525" height="78" fill="white"/>
<path d="M27.1332 63.8697C22.3211 63.8697 18.1468 63.116 14.6102 61.6086C11.1316 60.1012 8.46463 58.1299 6.60937 55.6949C4.75411 53.2019 3.7685 50.535 3.65255 47.6941C3.65255 47.2303 3.82648 46.8244 4.17434 46.4766C4.58018 46.0707 5.04399 45.8678 5.56578 45.8678H10.001C11.1026 45.8678 11.8563 46.4476 12.2621 47.6071C12.7839 50.0422 14.2623 52.1293 16.6973 53.8686C19.1904 55.6079 22.669 56.4776 27.1332 56.4776C31.9453 56.4776 35.5688 55.6369 38.0039 53.9556C40.4389 52.2163 41.6564 49.8103 41.6564 46.7375C41.6564 44.7663 41.0477 43.1719 39.8301 41.9544C38.6706 40.7369 36.9313 39.6643 34.6122 38.7367C32.2931 37.809 28.8145 36.6495 24.1764 35.2581C19.6542 33.9826 16.0596 32.6201 13.3927 31.1707C10.7257 29.7213 8.72552 27.924 7.39206 25.7788C6.05859 23.6337 5.39185 20.9378 5.39185 17.691C5.39185 14.5603 6.23252 11.7484 7.91385 9.25541C9.65315 6.7624 12.1172 4.82017 15.3059 3.42873C18.4946 1.97931 22.2921 1.25459 26.6984 1.25459C31.2206 1.25459 35.105 2.06627 38.3517 3.68962C41.5984 5.255 44.0624 7.2552 45.7438 9.69023C47.4251 12.1253 48.3238 14.5603 48.4397 16.9953C48.4397 17.4591 48.2658 17.865 47.9179 18.2128C47.628 18.5607 47.1932 18.7346 46.6134 18.7346H42.0043C40.7868 18.7346 40.0331 18.1839 39.7432 17.0823C39.3953 14.6473 38.0329 12.6471 35.6558 11.0817C33.2787 9.45833 30.2929 8.64665 26.6984 8.64665C22.7559 8.64665 19.6542 9.40035 17.3931 10.9077C15.132 12.4152 14.0014 14.6473 14.0014 17.6041C14.0014 19.5753 14.5232 21.1987 15.5668 22.4741C16.6684 23.7496 18.3207 24.8802 20.5238 25.8658C22.7269 26.7934 25.9447 27.866 30.177 29.0835C35.105 30.417 38.9895 31.8084 41.8303 33.2578C44.6712 34.6493 46.7874 36.4176 48.1788 38.5627C49.5703 40.6499 50.266 43.3168 50.266 46.5635C50.266 51.9554 48.1788 56.1877 44.0045 59.2605C39.8301 62.3333 34.2064 63.8697 27.1332 63.8697ZM78.6228 63.8697C72.6512 63.8697 67.8681 62.0434 64.2735 58.3908C60.7369 54.6803 58.7947 49.6363 58.4468 43.2589L58.3599 40.302L58.4468 37.4322C58.8527 31.1707 60.8239 26.1847 64.3605 22.4741C67.955 18.7636 72.6802 16.9084 78.5358 16.9084C84.9713 16.9084 89.9573 18.9665 93.4939 23.0829C97.0305 27.1413 98.7988 32.6491 98.7988 39.6063V41.0847C98.7988 41.6645 98.5958 42.1573 98.19 42.5631C97.8421 42.911 97.3783 43.0849 96.7986 43.0849H66.7085V43.8676C66.8825 47.6361 68.013 50.8538 70.1002 53.5208C72.2453 56.1297 75.0572 57.4342 78.5358 57.4342C81.2028 57.4342 83.3769 56.9124 85.0582 55.8688C86.7975 54.7673 88.073 53.6367 88.8847 52.4772C89.4065 51.7815 89.7833 51.3756 90.0153 51.2597C90.3051 51.0857 90.7979 50.9988 91.4937 50.9988H95.755C96.2768 50.9988 96.7116 51.1437 97.0595 51.4336C97.4073 51.7235 97.5812 52.1293 97.5812 52.6511C97.5812 53.9266 96.7696 55.463 95.1462 57.2603C93.5808 59.0576 91.3487 60.6229 88.4499 61.9564C85.609 63.2319 82.3333 63.8697 78.6228 63.8697ZM90.5371 37.0843V36.8234C90.5371 32.823 89.4355 29.5763 87.2324 27.0833C85.0872 24.5323 82.1884 23.2568 78.5358 23.2568C74.8833 23.2568 71.9844 24.5323 69.8393 27.0833C67.7521 29.5763 66.7085 32.823 66.7085 36.8234V37.0843H90.5371ZM121.807 63.8697C118.966 63.8697 116.328 63.2899 113.893 62.1303C111.458 60.9708 109.516 59.4054 108.067 57.4342C106.675 55.405 105.98 53.1729 105.98 50.7379C105.98 46.9114 107.545 43.7807 110.676 41.3456C113.864 38.8526 118.155 37.2293 123.547 36.4756L136.504 34.6493V32.1273C136.504 26.2137 133.113 23.2568 126.329 23.2568C123.778 23.2568 121.691 23.8076 120.068 24.9092C118.445 25.9528 117.227 27.1993 116.415 28.6487C116.241 29.1705 116.01 29.5473 115.72 29.7792C115.488 30.0111 115.14 30.1271 114.676 30.1271H110.937C110.415 30.1271 109.951 29.9532 109.545 29.6053C109.197 29.1995 109.023 28.7356 109.023 28.2139C109.081 26.8224 109.719 25.257 110.937 23.5177C112.212 21.7204 114.154 20.1841 116.763 18.9086C119.372 17.5751 122.59 16.9084 126.416 16.9084C132.91 16.9084 137.577 18.4447 140.418 21.5175C143.259 24.5323 144.679 28.3008 144.679 32.823V60.9998C144.679 61.5796 144.476 62.0724 144.07 62.4782C143.722 62.8261 143.259 63 142.679 63H138.678C138.099 63 137.606 62.8261 137.2 62.4782C136.852 62.0724 136.678 61.5796 136.678 60.9998V57.2603C135.403 59.1155 133.548 60.6809 131.113 61.9564C128.677 63.2319 125.576 63.8697 121.807 63.8697ZM123.633 57.3473C127.402 57.3473 130.475 56.1297 132.852 53.6947C135.287 51.2017 136.504 47.6361 136.504 42.998V40.5629L126.416 42.0413C122.3 42.6211 119.198 43.6067 117.111 44.9982C115.024 46.3316 113.98 48.042 113.98 50.1291C113.98 52.4482 114.937 54.2455 116.85 55.521C118.763 56.7385 121.025 57.3473 123.633 57.3473ZM159.181 63C158.601 63 158.109 62.8261 157.703 62.4782C157.355 62.0724 157.181 61.5796 157.181 60.9998V19.8652C157.181 19.2854 157.355 18.7926 157.703 18.3868C158.109 17.9809 158.601 17.778 159.181 17.778H163.182C163.761 17.778 164.254 17.9809 164.66 18.3868C165.066 18.7926 165.269 19.2854 165.269 19.8652V23.6917C167.646 19.7492 171.704 17.778 177.444 17.778H180.836C181.415 17.778 181.879 17.9809 182.227 18.3868C182.633 18.7346 182.836 19.1984 182.836 19.7782V23.3438C182.836 23.9236 182.633 24.3874 182.227 24.7352C181.879 25.0831 181.415 25.257 180.836 25.257H175.618C172.487 25.257 170.023 26.1847 168.226 28.0399C166.428 29.8372 165.53 32.3012 165.53 35.432V60.9998C165.53 61.5796 165.327 62.0724 164.921 62.4782C164.515 62.8261 164.022 63 163.443 63H159.181ZM207.631 63.8697C201.428 63.8697 196.558 62.1303 193.021 58.6517C189.542 55.1151 187.687 50.1871 187.455 43.8676L187.368 40.389L187.455 36.9104C187.687 30.5909 189.542 25.6919 193.021 22.2132C196.558 18.6767 201.428 16.9084 207.631 16.9084C211.805 16.9084 215.342 17.6621 218.241 19.1695C221.14 20.6769 223.285 22.5321 224.676 24.7352C226.126 26.9384 226.908 29.1415 227.024 31.3446C227.082 31.9244 226.908 32.3882 226.503 32.7361C226.097 33.0839 225.604 33.2578 225.024 33.2578H220.85C220.27 33.2578 219.835 33.1419 219.545 32.91C219.256 32.6781 218.966 32.2143 218.676 31.5185C217.69 28.7356 216.299 26.7644 214.501 25.6049C212.704 24.3874 210.443 23.7786 207.718 23.7786C204.124 23.7786 201.254 24.9092 199.109 27.1703C197.021 29.3734 195.891 32.765 195.717 37.3452L195.63 40.476L195.717 43.4328C195.891 48.0709 197.021 51.4916 199.109 53.6947C201.196 55.8978 204.066 56.9994 207.718 56.9994C210.443 56.9994 212.704 56.4196 214.501 55.2601C216.299 54.0426 217.69 52.0424 218.676 49.2595C218.966 48.5638 219.256 48.0999 219.545 47.868C219.835 47.5781 220.27 47.4332 220.85 47.4332H225.024C225.604 47.4332 226.097 47.6361 226.503 48.042C226.908 48.3898 227.082 48.8536 227.024 49.4334C226.908 51.5785 226.126 53.7817 224.676 56.0428C223.285 58.2459 221.14 60.1012 218.241 61.6086C215.4 63.116 211.863 63.8697 207.631 63.8697ZM239.439 63C238.86 63 238.367 62.8261 237.961 62.4782C237.613 62.0724 237.439 61.5796 237.439 60.9998V3.2548C237.439 2.67503 237.613 2.21122 237.961 1.86335C238.367 1.45751 238.86 1.25459 239.439 1.25459H243.788C244.367 1.25459 244.831 1.45751 245.179 1.86335C245.585 2.21122 245.788 2.67503 245.788 3.2548V23.5177C247.469 21.3726 249.44 19.7492 251.702 18.6477C253.963 17.4881 256.774 16.9084 260.137 16.9084C265.703 16.9084 270.022 18.7056 273.095 22.3002C276.226 25.8368 277.791 30.5619 277.791 36.4756V60.9998C277.791 61.5796 277.588 62.0724 277.182 62.4782C276.835 62.8261 276.371 63 275.791 63H271.443C270.863 63 270.37 62.8261 269.964 62.4782C269.616 62.0724 269.442 61.5796 269.442 60.9998V36.9104C269.442 32.794 268.428 29.6053 266.399 27.3442C264.427 25.0831 261.558 23.9526 257.789 23.9526C254.137 23.9526 251.209 25.1121 249.006 27.4312C246.86 29.6923 245.788 32.852 245.788 36.9104V60.9998C245.788 61.5796 245.585 62.0724 245.179 62.4782C244.831 62.8261 244.367 63 243.788 63H239.439Z" fill="#8058EC"/>
<path d="M292.782 63C292.202 63 291.709 62.7971 291.303 62.3912C290.898 61.9854 290.695 61.4926 290.695 60.9128V4.29838C290.695 3.66064 290.869 3.13884 291.216 2.73301C291.622 2.32717 292.144 2.12425 292.782 2.12425H318.002C324.785 2.12425 329.829 3.63165 333.134 6.64645C336.496 9.60327 338.178 13.6617 338.178 18.8216C338.178 21.8364 337.424 24.4164 335.917 26.5615C334.467 28.6487 332.757 30.1561 330.786 31.0837C333.221 32.1853 335.25 33.9826 336.873 36.4756C338.555 38.9686 339.395 41.8094 339.395 44.9982C339.395 50.39 337.569 54.7383 333.916 58.043C330.322 61.3477 325.249 63 318.697 63H292.782ZM316.436 27.0833C319.451 27.0833 321.741 26.3586 323.307 24.9092C324.872 23.4597 325.655 21.5175 325.655 19.0825C325.655 16.5895 324.872 14.6762 323.307 13.3428C321.741 11.9513 319.451 11.2556 316.436 11.2556H302.783V27.0833H316.436ZM317.306 53.7817C320.321 53.7817 322.669 52.97 324.35 51.3466C326.032 49.6653 326.872 47.5492 326.872 44.9982C326.872 42.3892 326.032 40.2731 324.35 38.6497C322.669 36.9684 320.321 36.1277 317.306 36.1277H302.783V53.7817H317.306ZM373.707 63.8697C365.822 63.8697 359.677 61.8695 355.27 57.869C350.864 53.8686 348.545 47.926 348.313 40.0411C348.255 38.3598 348.226 35.8958 348.226 32.6491C348.226 29.3444 348.255 26.8514 348.313 25.1701C348.545 17.4591 350.922 11.5455 355.444 7.42913C359.967 3.31277 366.054 1.25459 373.707 1.25459C381.36 1.25459 387.448 3.31277 391.97 7.42913C396.55 11.5455 398.956 17.4591 399.188 25.1701C399.304 28.5327 399.362 31.0257 399.362 32.6491C399.362 34.2145 399.304 36.6785 399.188 40.0411C398.898 47.926 396.55 53.8686 392.144 57.869C387.738 61.8695 381.592 63.8697 373.707 63.8697ZM373.707 53.8686C377.592 53.8686 380.693 52.7091 383.012 50.39C385.332 48.013 386.578 44.4184 386.752 39.6063C386.868 36.1277 386.926 33.7796 386.926 32.5621C386.926 31.2287 386.868 28.8806 386.752 25.5179C386.578 20.7058 385.332 17.1403 383.012 14.8212C380.693 12.4441 377.592 11.2556 373.707 11.2556C369.881 11.2556 366.808 12.4441 364.489 14.8212C362.17 17.1403 360.923 20.7058 360.749 25.5179C360.691 27.1993 360.662 29.5473 360.662 32.5621C360.662 35.5189 360.691 37.867 360.749 39.6063C360.923 44.4184 362.141 48.013 364.402 50.39C366.721 52.7091 369.823 53.8686 373.707 53.8686ZM434.175 63.8697C426.29 63.8697 420.145 61.8695 415.739 57.869C411.332 53.8686 409.013 47.926 408.781 40.0411C408.723 38.3598 408.694 35.8958 408.694 32.6491C408.694 29.3444 408.723 26.8514 408.781 25.1701C409.013 17.4591 411.39 11.5455 415.912 7.42913C420.435 3.31277 426.522 1.25459 434.175 1.25459C441.828 1.25459 447.916 3.31277 452.438 7.42913C457.018 11.5455 459.424 17.4591 459.656 25.1701C459.772 28.5327 459.83 31.0257 459.83 32.6491C459.83 34.2145 459.772 36.6785 459.656 40.0411C459.366 47.926 457.018 53.8686 452.612 57.869C448.206 61.8695 442.06 63.8697 434.175 63.8697ZM434.175 53.8686C438.06 53.8686 441.161 52.7091 443.481 50.39C445.8 48.013 447.046 44.4184 447.22 39.6063C447.336 36.1277 447.394 33.7796 447.394 32.5621C447.394 31.2287 447.336 28.8806 447.22 25.5179C447.046 20.7058 445.8 17.1403 443.481 14.8212C441.161 12.4441 438.06 11.2556 434.175 11.2556C430.349 11.2556 427.276 12.4441 424.957 14.8212C422.638 17.1403 421.391 20.7058 421.217 25.5179C421.159 27.1993 421.13 29.5473 421.13 32.5621C421.13 35.5189 421.159 37.867 421.217 39.6063C421.391 44.4184 422.609 48.013 424.87 50.39C427.189 52.7091 430.291 53.8686 434.175 53.8686ZM473.337 63C472.757 63 472.264 62.7971 471.858 62.3912C471.453 61.9854 471.25 61.4926 471.25 60.9128V4.29838C471.25 3.66064 471.424 3.13884 471.771 2.73301C472.177 2.32717 472.699 2.12425 473.337 2.12425H480.99C481.628 2.12425 482.149 2.32717 482.555 2.73301C482.961 3.13884 483.164 3.66064 483.164 4.29838V24.6483L502.818 3.68962C503.572 2.64604 504.702 2.12425 506.21 2.12425H514.819C515.283 2.12425 515.689 2.29818 516.037 2.64604C516.443 2.9939 516.646 3.42873 516.646 3.95052C516.646 4.35636 516.53 4.70422 516.298 4.9941L492.382 31.2576L517.95 60.0432C518.24 60.391 518.385 60.7679 518.385 61.1737C518.385 61.6955 518.182 62.1303 517.776 62.4782C517.428 62.8261 517.022 63 516.559 63H507.601C506.152 63 505.021 62.4782 504.21 61.4346L483.164 38.3888V60.9128C483.164 61.5506 482.961 62.0724 482.555 62.4782C482.149 62.8261 481.628 63 480.99 63H473.337Z" fill="#5A595E"/>
<rect y="73" width="523" height="5" rx="2.5" fill="#5EB6A8"/>
</g>
<defs>
<clipPath id="clip0">
<rect width="525" height="78" fill="white"/>
</clipPath>
</defs>
</svg>
